<?xml version="1.0" standalone="no"?>
<!DOCTYPE svg PUBLIC "-//W3C//DTD SVG 20010904//EN"
 "http://www.w3.org/TR/2001/REC-SVG-20010904/DTD/svg10.dtd">
<svg version="1.0" xmlns="http://www.w3.org/2000/svg"
 width="1080.000000pt" height="1080.000000pt" viewBox="0 0 1080.000000 1080.000000"
 preserveAspectRatio="xMidYMid meet">
<metadata>
Created by potrace 1.14, written by Peter Selinger 2001-2017
</metadata>
<g transform="translate(0.000000,1080.000000) scale(0.100000,-0.100000)"
fill="#000000" stroke="none">
<path d="M2438 7153 c-14 -3 -18 -15 -18 -54 0 -42 -23 -148 -96 -449 -26
-107 -44 -194 -44 -216 0 -21 81 -114 100 -114 11 0 2 -51 -10 -60 -4 -3 -19
-30 -33 -61 -14 -31 -42 -75 -62 -99 -19 -23 -35 -45 -35 -49 0 -4 -10 -12
-23 -18 -22 -10 -34 -29 -76 -124 -33 -71 -25 -124 31 -206 141 -208 453 -365
868 -438 235 -42 303 -46 735 -52 465 -6 690 4 903 37 313 50 397 64 547 92
88 16 183 33 210 38 44 8 153 31 350 74 195 43 376 100 553 172 l137 56 135
-17 c74 -9 187 -20 250 -25 63 -4 194 -15 290 -24 374 -34 594 -48 810 -53
204 -4 228 -3 260 14 45 23 66 68 74 162 11 133 25 261 55 511 5 36 11 73 15
82 6 13 -4 23 -45 44 -125 63 -393 127 -754 179 -99 14 -261 39 -360 55 -99
17 -211 35 -250 41 -38 6 -92 14 -120 19 -141 24 -260 40 -525 70 -166 18
-592 72 -795 100 -77 11 -201 27 -275 35 -169 19 -285 33 -375 45 -111 15
-474 48 -656 59 -156 10 -288 27 -404 51 -63 14 -151 25 -390 50 -104 11 -251
26 -325 35 -74 8 -157 15 -185 15 -27 0 -66 4 -85 9 -38 10 -354 21 -382 14z
m1277 -273 c12 0 30 -9 40 -20 10 -11 25 -19 34 -18 9 2 29 -17 48 -46 54 -83
57 -197 7 -298 -31 -63 -72 -99 -111 -98 -15 1 -50 1 -77 1 -92 -1 -174 76
-196 185 -18 84 11 199 67 265 8 10 37 20 66 23 29 4 59 11 67 16 9 6 19 5 24
0 6 -6 20 -10 31 -10z"/>
<path d="M3747 6784 c-4 -4 0 -19 7 -33 8 -14 18 -35 22 -46 7 -19 8 -19 12 3
4 24 -30 87 -41 76z"/>
<path d="M3582 6767 c-12 -15 -29 -126 -17 -115 8 7 44 105 45 121 0 11 -17 8
-28 -6z"/>
<path d="M3715 6677 c-9 -22 -2 -62 10 -60 6 1 11 14 13 29 4 32 -14 56 -23
31z"/>
<path d="M3620 6666 c0 -8 5 -18 10 -21 6 -3 10 3 10 14 0 12 -4 21 -10 21 -5
0 -10 -6 -10 -14z"/>
<path d="M3777 6632 c-11 -30 -30 -58 -49 -72 -28 -20 -29 -24 -14 -38 14 -15
18 -14 44 11 36 35 59 98 46 128 -8 18 -11 15 -27 -29z"/>
<path d="M3570 6594 c0 -32 34 -79 51 -69 16 10 10 30 -21 65 l-29 35 -1 -31z"/>
</g>
</svg>
